<?xml version="1.0" encoding="UTF-8" standalone="no"?>
<!-- Created with Inkscape (http://www.inkscape.org/) -->

<svg
   xmlns:dc="http://purl.org/dc/elements/1.1/"
   xmlns:cc="http://creativecommons.org/ns#"
   xmlns:rdf="http://www.w3.org/1999/02/22-rdf-syntax-ns#"
   xmlns:svg="http://www.w3.org/2000/svg"
   xmlns="http://www.w3.org/2000/svg"
   xmlns:sodipodi="http://sodipodi.sourceforge.net/DTD/sodipodi-0.dtd"
   xmlns:inkscape="http://www.inkscape.org/namespaces/inkscape"
   id="svg7633"
   sodipodi:docname="Polaroidswithphotos.svg"
   viewBox="0 0 1105.2743 635.61195"
   version="1.1"
   inkscape:version="0.91 r13725"
   width="1105.2743"
   height="635.61194">
  <defs
     id="defs4244" />
  <sodipodi:namedview
     id="base"
     bordercolor="#666666"
     inkscape:pageshadow="2"
     inkscape:window-y="1"
     pagecolor="#ffffff"
     inkscape:window-height="1035"
     inkscape:window-maximized="1"
     inkscape:zoom="0.60487828"
     inkscape:window-x="4"
     showgrid="false"
     borderopacity="1.0"
     inkscape:current-layer="layer1"
     inkscape:cx="626.30898"
     inkscape:cy="261.14115"
     inkscape:window-width="1916"
     inkscape:pageopacity="0.0"
     inkscape:document-units="px"
     fit-margin-top="0"
     fit-margin-left="0"
     fit-margin-right="0"
     fit-margin-bottom="0" />
  <g
     id="layer1"
     inkscape:label="Layer 1"
     inkscape:groupmode="layer"
     transform="translate(43.168977,153.70998)">
    <g
       id="g5406">
      <g
         transform="translate(-1074.5964,-77.701586)"
         id="g5375">
        <g
           transform="matrix(0.99619,0.087156,-0.087156,0.99619,1097.5243,-529.36286)"
           id="g7573">
          <rect
             x="28.570999"
             y="578.08002"
             width="442.85999"
             height="457.14001"
             style="fill:#ffffff;stroke:#000000;stroke-width:8"
             id="rect7575" />
          <rect
             x="51.429001"
             y="609.51001"
             width="397.14001"
             height="308.57001"
             style="fill:#cae9fb;fill-opacity:1;stroke:#000000;stroke-width:8"
             id="rect7577" />
          <path
             sodipodi:nodetypes="ccccc"
             inkscape:connector-curvature="0"
             id="path5321"
             d="m 55.433043,783.94616 389.181017,4.63993 0.29261,126.10793 -390.994078,1.95748 z"
             style="fill:#436aa1;fill-opacity:1;fill-rule:evenodd;stroke:none;stroke-width:1px;stroke-linecap:butt;stroke-linejoin:miter;stroke-opacity:1" />
          <path
             sodipodi:nodetypes="ccsccc"
             inkscape:connector-curvature="0"
             id="path5319"
             d="m 54.746518,864.29308 305.940592,3.96132 c 36.3401,3.2166 88.34705,21.06127 25.1145,30.8238 -9.0996,1.40489 -11.2889,10.05475 -25.33038,15.81458 l -306.793389,1.57453 z"
             style="fill:#faf58f;fill-opacity:1;fill-rule:evenodd;stroke:none;stroke-width:1px;stroke-linecap:butt;stroke-linejoin:miter;stroke-opacity:1" />
        </g>
        <path
           id="path5323"
           d="m 1155.7586,290.68613 c -2.0544,-2.37094 -5.0296,-3.5854 -7.8411,-3.51499 -4.3777,0.0255 -8.8189,1.2863 -13.1996,-0.4271 -2.0578,-0.73197 -3.5255,-2.60679 -4.9432,-4.34123 0.3647,0.98844 0.854,1.92816 1.3241,2.86498 -2.4676,-1.68594 -5.1267,-3.0553 -7.9236,-3.71788 -5.0475,-1.28357 -10.1075,-0.58137 -15.0633,-0.05 -9.2019,1.06156 -18.7821,-1.70417 -27.3825,-6.28632 l -0.012,0.0432 c 7.1521,5.31663 15.3509,9.26666 23.7435,9.90078 5.2829,0.43006 10.4732,-0.55042 15.7676,0.0842 8.8695,0.8293 17.0076,6.07515 24.7716,11.03004 -3.0218,2.63982 -6.7814,4.41615 -10.8132,4.51544 -3.4625,0.18323 -6.8806,-1.15229 -10.1614,-2.56341 1.3544,1.46433 2.9802,2.54404 4.572,3.61983 -6.6494,-0.46966 -13.3033,0.35376 -19.9517,-1.22169 -5.7859,-1.39193 -11.1355,-4.58124 -16.4981,-7.46319 6.3873,5.21301 13.4023,9.74734 21.0329,11.71988 5.9875,1.49517 12.0379,0.49747 18.0274,1.95035 5.9994,1.64599 11.6122,4.9868 16.8118,8.85592 2.9678,2.15017 5.7398,4.63129 8.7444,6.70564 -6.1935,-6.86694 -13.0284,-13.14737 -20.7483,-17.6785 4.4427,0.0458 8.0875,-2.64351 12.0148,-4.23407 2.8021,-1.17522 6.0133,-1.65586 9.0576,-0.52487 4.6112,1.55926 8.2444,5.3835 11.8063,8.89633 -1.8161,-4.23221 -5.1592,-7.38621 -8.1583,-10.63451 -2.0349,-2.2114 -2.9655,-5.28971 -4.9772,-7.5289 m 0.1258,3.62115 c -1.1406,-0.33597 -2.3211,-0.88342 -3.4988,-0.65267 -2.0911,0.24115 -3.7708,1.65819 -5.7547,2.22618 -1.329,0.42445 -2.4897,-0.89149 -3.4343,-1.83896 -1.0944,-1.24954 -2.3657,-2.26792 -3.6585,-3.24697 3.5465,-0.19551 7.1037,-0.95303 10.6998,-0.0964 2.0927,0.55819 4.271,1.6228 5.6465,3.60887 z"
           inkscape:connector-curvature="0"
           style="opacity:1;fill:#cae9fb;stroke:#cae9fb;stroke-width:0.0460636" />
        <path
           style="opacity:1;fill:#cae9fb;stroke:#cae9fb;stroke-width:0.04800723"
           inkscape:connector-curvature="0"
           d="m 1246.3127,306.47605 c -4.3485,-1.54725 -9.5378,-1.00869 -13.308,1.53747 -2.8116,1.87047 -5.3554,4.18648 -8.6811,5.30778 -3.9791,1.3465 -7.7492,3.17287 -11.2569,5.36162 -0.707,0.43089 -1.3175,0.98911 -1.8048,1.655 4.7556,-1.67952 9.5218,-3.59403 14.6576,-3.99553 3.8505,-0.42596 7.8777,0.10287 11.2891,1.84108 7.037,3.48136 11.1445,10.57633 18.8027,13.19597 -11.6212,1.27795 -22.8835,4.69081 -33.4067,9.28367 4.2253,-0.68062 8.2954,-1.97815 12.4833,-2.80081 8.365,-1.87041 17.0622,-2.89869 25.6629,-2.04178 7.0637,0.85199 13.5383,3.77513 20.3611,5.46443 12.1781,2.97212 25.0523,1.20945 36.9895,-1.84595 -7.3315,0.47007 -14.7005,1.48849 -22.0534,0.62671 -10.3359,-0.98417 -19.5846,-5.61621 -29.4009,-8.33373 2.4955,-0.56308 5.2482,-0.55329 7.4599,-1.86554 -4.7126,0.13219 -9.5485,-0.10774 -13.9507,-1.80684 -5.3714,-1.92917 -9.6664,-5.72395 -12.8742,-10.03284 11.2837,-1.78718 23.028,-3.3932 34.3599,-1.06253 7.1709,1.43958 13.6669,4.66142 20.4897,7.02155 12.0281,4.22566 25.3522,3.87307 37.7713,1.4004 -10.9303,0.45534 -22.1497,-0.20568 -32.4535,-3.83395 -7.2351,-2.48253 -13.715,-6.60532 -21.2232,-8.46599 -5.3287,-1.46891 -11.0375,-1.54726 -16.4838,-0.57288 0.921,-0.90582 2.3563,-1.33671 2.8972,-2.53143 -2.4635,1.3465 -5.1465,2.5902 -8.1187,2.43349 -6.6246,-0.20076 -12.1727,-3.90732 -18.2083,-5.93937 m 6.3622,6.37026 c 1.3228,0.62677 2.8169,0.97931 3.9469,1.89985 -1.778,0.21547 -3.5774,0.49945 -5.1893,1.27308 -1.8262,0.70999 -3.9898,1.89005 -5.9391,0.84711 -2.6134,-1.62074 -4.4075,-4.22566 -7.3583,-5.42038 -1.4888,-0.68062 -3.1811,-0.66103 -4.8091,-0.79322 2.2118,-0.90589 4.6002,-1.56198 7.0423,-1.44451 4.386,0.15184 8.4454,1.8754 12.3066,3.63807 z"
           id="path5103" />
        <path
           style="opacity:1;fill:#ffffff;stroke:#ffffff;stroke-width:0.04135384"
           inkscape:connector-curvature="0"
           d="m 1355.3093,148.76418 c 2.8089,-0.77896 5.7689,-0.42968 8.6303,-0.0454 3.6096,0.83929 6.6843,3.11232 9.0052,5.79702 3.3771,3.61946 5.3921,8.12545 7.0525,12.61586 0.4792,1.53233 0.7886,3.13259 1.6664,4.52952 4.9064,-1.84685 10.5506,-1.63405 15.3915,0.40304 7.1211,3.07011 12.4488,8.81654 16.6843,14.8702 0.7164,0.90746 1.1828,2.03096 2.1425,2.74763 4.1767,-0.20122 9.0005,-0.33762 12.3629,2.44358 1.7872,1.26389 3.5755,3.13744 2.8236,5.39941 -1.5631,1.23098 -3.4082,2.10879 -5.3007,2.78104 -1.9014,0.27231 -3.8223,0.56022 -5.745,0.53034 -3.6881,-0.42921 -6.9116,1.65149 -10.3112,2.5719 -1.4976,0.0729 -3.1932,-0.003 -4.3005,-1.09652 -1.8849,-1.75252 -4.073,-3.30616 -6.6392,-4.01446 -2.5234,-0.6748 -4.9628,-1.71203 -7.5981,-1.90216 -2.0843,-0.17639 -4.1386,-1.23807 -6.2342,-0.70662 -2.5692,1.31762 -4.9702,2.98358 -7.7419,3.92436 -2.0956,0.70315 -4.2504,-0.13094 -6.3064,-0.54498 -7.0983,-0.56994 -14.2011,-1.14024 -21.3,-1.7012 -1.7641,-0.24466 -2.9176,1.33687 -4.5438,1.64845 -1.4698,0.29409 -3.2015,1.18099 -4.5721,0.18236 -1.0312,-0.50778 -1.6678,-1.44319 -2.1997,-2.37448 -1.5909,-0.29945 -2.9728,0.49106 -4.4243,0.89823 -1.3884,0.0774 -2.7912,-0.0653 -4.1481,-0.32404 -1.1401,-0.51651 -1.7635,-2.01321 -3.2105,-1.889 -2.7991,0.54365 -5.6255,-0.27569 -8.4402,0.0649 -4.7896,-0.0626 -9.6137,-0.54868 -14.2493,-1.73221 -1.3382,-0.6054 -3.3374,-0.93334 -3.6166,-2.5698 -0.2608,-2.48925 0.5009,-5.21405 2.5933,-6.84468 0.8342,-0.33225 1.8036,-0.13421 2.6878,-0.35083 0.7924,-1.23277 1.185,-2.65647 2.0213,-3.86855 0.8509,-1.27958 2.1008,-2.24381 3.3388,-3.17465 4.2315,-0.14532 7.8482,2.25278 11.4402,4.04793 0.7828,0.53505 1.2201,-0.53735 1.3826,-1.08236 0.4565,-2.73212 0.7986,-6.0272 3.4133,-7.74039 1.9427,-0.90003 4.3238,-0.67021 6.3374,-0.0664 2.1464,0.70894 2.8388,2.82502 4.1873,4.32413 0.9638,-1.09452 0.7515,-2.59684 0.9402,-3.9253 0.2806,-5.82412 2.0028,-11.6484 5.4755,-16.49075 2.8321,-3.45574 6.6167,-6.50017 11.3049,-7.33428 z"
           id="path5009" />
        <path
           style="opacity:1;fill:#bb1f2d;stroke:#bb1f2d;stroke-width:0.02338921"
           inkscape:connector-curvature="0"
           d="m 1196.4194,121.36514 c 4.3369,0.47964 8.6718,0.97656 13.0067,1.47329 -0.4012,3.44152 -0.7925,6.88417 -1.1738,10.32794 3.7426,1.27655 7.3682,2.86066 10.558,4.91886 2.5044,1.6416 5.0218,3.73924 5.3324,6.38377 1.3716,0.15589 2.7466,0.30614 4.1197,0.47327 -0.146,1.28466 -0.2811,2.57057 -0.448,3.85287 -1.3593,-0.1389 -2.7159,-0.30265 -4.0712,-0.45156 -15.6767,-1.78178 -31.3533,-3.56356 -47.0298,-5.34732 -1.7263,-0.19621 -3.4496,-0.3941 -5.1736,-0.58601 0.1237,-1.29167 0.2821,-2.57939 0.4286,-3.86845 1.7464,0.19347 3.4889,0.39655 5.2326,0.5897 0.7641,-2.24162 3.174,-3.72799 5.6298,-4.77241 3.8179,-1.57589 8.0944,-2.43121 12.4223,-2.81944 0.4104,-3.38922 0.785,-6.78252 1.1566,-10.17615 z"
           id="path5013" />
        <path
           style="opacity:1;fill:#faf58f;stroke:#faf58f;stroke-width:0.02338921"
           inkscape:connector-curvature="0"
           d="m 1176.7205,142.99681 c 15.6765,1.78378 31.3532,3.56556 47.0299,5.34734 -1.1885,9.48624 -2.1694,18.99831 -3.2562,28.49834 -15.6422,-1.76225 -31.2847,-3.54459 -46.9241,-5.33129 0.5755,-5.68332 1.3723,-11.34817 1.8914,-17.04013 0.4485,-3.82163 0.9784,-7.63622 1.2589,-11.4747 m 18.7734,4.31069 c -0.8947,7.74822 -1.7723,15.49616 -2.6422,23.2472 3.7422,0.43439 7.4853,0.85982 11.2295,1.27632 0.8908,-7.74866 1.7723,-15.49616 2.6422,-23.24719 -3.7422,-0.43439 -7.4856,-0.85684 -11.2267,-1.27601 z"
           id="path5017" />
        <path
           style="opacity:1;fill:#114986;stroke:#114986;stroke-width:0.02338921"
           inkscape:connector-curvature="0"
           d="m 1195.4939,147.3075 c 3.7411,0.41917 7.4845,0.84162 11.2268,1.27602 -0.8699,7.75105 -1.7515,15.49853 -2.6422,23.24721 -3.7443,-0.41652 -7.4874,-0.84195 -11.2296,-1.27634 0.8709,-7.75093 1.7504,-15.49864 2.6422,-23.2472 z"
           id="path5019" />
        <path
           style="opacity:1;fill:#ffffff;stroke:#ffffff;stroke-width:0.02338921"
           inkscape:connector-curvature="0"
           d="m 1163.0212,170.29707 c 3.5159,0.40866 7.0358,0.78186 10.5489,1.21457 15.6394,1.7866 31.2821,3.56875 46.9241,5.33129 3.4532,0.36359 6.8998,0.78421 10.3524,1.15207 0.058,1.08723 -0.2296,2.14416 -0.3656,3.21608 -0.4348,2.63109 -0.8587,5.26565 -1.2796,7.89832 -0.09,0.52236 -0.047,1.05534 0.01,1.5872 -22.4549,-2.51434 -44.9057,-5.0906 -67.359,-7.64481 0.6719,-4.21958 0.6259,-8.51853 1.1752,-12.75428 m 3.5011,3.27675 c -0.3947,2.0786 -0.5734,4.19513 -0.7394,6.30196 2.2133,0.34295 4.4516,0.51713 6.6736,0.80752 1.1595,0.12977 2.3196,0.25458 3.4793,0.38217 0.2855,-2.1133 0.5997,-4.23003 0.6838,-6.36176 -1.1314,-0.10403 -2.26,-0.2301 -3.3886,-0.35837 -2.2325,-0.27378 -4.4728,-0.50334 -6.7088,-0.77156 m 16.4644,1.87131 c -0.4371,1.92895 -0.4758,3.921 -0.775,5.87233 -0.1974,0.44325 0.485,0.56314 0.8796,0.57679 2.8063,0.30336 5.6117,0.61557 8.4159,0.96157 0.3346,0.0431 0.66,0.0194 0.9726,-0.0677 0.1888,-2.04185 0.4067,-4.08262 0.6946,-6.11097 -3.3727,-0.54823 -6.7968,-0.79475 -10.1905,-1.2317 m 18.1303,2.05159 c -0.4048,2.09306 -0.5645,4.22288 -0.7641,6.3415 3.3775,0.3571 6.7592,0.85066 10.1372,1.10305 0.2375,-0.54565 0.1899,-1.14822 0.272,-1.72044 0.1231,-1.52568 0.4184,-3.03403 0.4627,-4.56645 -3.3688,-0.38289 -6.7392,-0.75268 -10.1084,-1.15795 m 14.7878,1.68578 c -0.3789,1.79074 -0.4125,3.62963 -0.7003,5.43519 0.021,0.30769 -0.25,0.80715 0.2849,0.95485 1.3185,0.17441 2.6448,0.28057 3.9645,0.44455 1.945,0.21503 3.8893,0.48442 5.8436,0.61737 0.4015,-2.03995 0.542,-4.12294 0.7676,-6.18734 -1.9263,-0.42839 -3.924,-0.50165 -5.8831,-0.76669 -1.4264,-0.17118 -2.8551,-0.32249 -4.2782,-0.49742 z"
           id="path5025" />
        <path
           style="opacity:1;fill:#cae9fb;stroke:#cae9fb;stroke-width:0.02338921"
           inkscape:connector-curvature="0"
           d="m 1166.5224,173.57383 c 2.236,0.26743 4.4763,0.4976 6.7087,0.77157 -0.3038,2.10676 -0.4497,4.23147 -0.7747,6.33805 -2.2221,-0.2904 -4.4601,-0.46456 -6.6735,-0.80761 0.166,-2.10682 0.3442,-4.22341 0.7395,-6.30195 z"
           id="path5027" />
        <path
           style="opacity:1;fill:#faf58f;stroke:#faf58f;stroke-width:0.02338921"
           inkscape:connector-curvature="0"
           d="m 1173.2312,174.34525 c 1.1285,0.12827 2.2573,0.25454 3.3886,0.35847 -0.084,2.13177 -0.3984,4.24845 -0.6839,6.36175 -1.1599,-0.1268 -2.3197,-0.25258 -3.4793,-0.38216 0.324,-2.1067 0.4699,-4.23141 0.7748,-6.33805 z"
           id="path5029" />
        <path
           style="opacity:1;fill:#faf58f;stroke:#faf58f;stroke-width:0.02338921"
           inkscape:connector-curvature="0"
           d="m 1182.9868,175.44514 c 3.3938,0.43707 6.8178,0.68362 10.1905,1.2317 -0.2899,2.02813 -0.5078,4.06889 -0.6946,6.11097 -0.3126,0.087 -0.6378,0.11022 -0.9726,0.0677 -2.8043,-0.34551 -5.6097,-0.65762 -8.4159,-0.96157 -0.3946,-0.0136 -1.077,-0.13348 -0.8795,-0.57679 0.2973,-1.95152 0.3378,-3.94338 0.7749,-5.87233 z"
           id="path5031" />
        <path
           style="opacity:1;fill:#faf58f;stroke:#faf58f;stroke-width:0.02338921"
           inkscape:connector-curvature="0"
           d="m 1201.117,177.49688 c 3.3692,0.40527 6.7396,0.77506 10.1084,1.15795 -0.044,1.53245 -0.3356,3.04122 -0.4626,4.56646 -0.081,0.57234 -0.034,1.17487 -0.2711,1.72055 -3.3781,-0.25248 -6.7599,-0.74598 -10.1372,-1.10307 0.1975,-2.11884 0.3583,-4.24855 0.764,-6.3415 z"
           id="path5033" />
        <path
           style="opacity:1;fill:#faf58f;stroke:#faf58f;stroke-width:0.02338921"
           inkscape:connector-curvature="0"
           d="m 1215.9049,179.1821 c 1.4232,0.17503 2.8518,0.32614 4.2782,0.49742 -0.3237,2.1045 -0.5031,4.22317 -0.7302,6.33643 -1.3197,-0.16338 -2.6461,-0.26965 -3.9646,-0.44457 -0.5349,-0.14775 -0.2631,-0.6471 -0.2847,-0.95483 0.2878,-1.80554 0.3207,-3.64452 0.7003,-5.43517 z"
           id="path5035" />
        <path
           style="opacity:1;fill:#cae9fb;stroke:#cae9fb;stroke-width:0.02338921"
           inkscape:connector-curvature="0"
           d="m 1220.1831,179.67949 c 1.959,0.26503 3.9569,0.33832 5.8832,0.76669 -0.2246,2.06453 -0.3667,4.14733 -0.7677,6.18735 -1.9543,-0.13295 -3.8985,-0.40304 -5.8434,-0.61735 0.2261,-2.11337 0.4045,-4.23215 0.7302,-6.33643 z"
           id="path5037" />
        <path
           style="opacity:1;fill:#bb1f2d;stroke:#bb1f2d;stroke-width:0.02338921"
           inkscape:connector-curvature="0"
           d="m 1161.846,183.05137 c 22.4534,2.55401 44.904,5.13047 67.359,7.64482 0.082,1.62247 -1.4242,2.8952 -2.9134,3.79993 -3.3585,1.91554 -7.5514,2.68453 -11.6517,3.18554 -0.162,11.98038 -0.2424,23.9656 -0.4215,35.94629 -0.055,6.10794 -0.16,12.21236 -0.2119,18.3206 -0.052,2.20001 -0.048,4.40416 -0.091,6.6051 -0.39,31.26404 -0.8392,62.52571 -1.184,93.79037 0,0.75281 -0.046,1.50321 -0.109,2.25368 -0.1999,2.58206 -0.6293,5.1647 -0.3347,7.77395 0.139,1.6892 1.5079,3.11484 2.699,4.48465 2.0911,2.33889 4.2989,4.7712 4.9903,7.60158 0.4739,1.72944 0.037,3.45788 -0.6079,5.07357 -3.2974,0.35829 -6.6765,-0.15947 -10.0034,-0.36378 -14.7543,-1.38285 -29.4644,-3.22856 -44.1587,-5.11481 -7.8972,-1.02012 -15.7834,-2.08802 -23.6633,-3.2109 -3.5074,-0.55687 -7.0531,-0.95319 -10.5166,-1.72339 1.0909,-2.37828 0.014,-5.05635 0.8412,-7.48913 0.4877,-1.72713 2.2061,-2.92888 3.8481,-3.98336 1.3781,-0.89731 2.9899,-1.75916 3.5454,-3.18667 0.7926,-1.91975 1.0086,-3.96966 1.2973,-5.98675 0.2333,-2.47798 0.7676,-4.9106 1.3126,-7.34199 6.0688,-28.05167 12.0212,-56.12548 17.8984,-84.21004 0.1825,-0.83489 0.3818,-1.66563 0.5365,-2.50367 0.7589,-3.56574 1.5151,-7.13181 2.2575,-10.70166 0.1782,-0.84206 0.3499,-1.68484 0.5387,-2.52347 0.8776,-4.36109 1.8386,-8.70826 2.7467,-13.06365 2.4662,-11.81432 4.9991,-23.61882 7.4765,-35.43409 -3.3799,-1.33113 -6.7668,-2.87475 -9.3022,-5.16383 -1.3417,-1.23985 -2.4922,-2.84344 -2.1789,-4.47898 m 7.9239,35.51333 c -2.6997,13.71961 -5.6159,27.40347 -8.6983,41.0551 6.1516,-0.20101 12.3412,0.0346 18.5121,0.43514 10.9145,0.81269 21.8796,2.19935 32.4253,4.98665 -0.1963,-14.00643 0.5251,-27.97097 0.2584,-41.98094 -7.5109,-1.8051 -15.238,-2.82819 -22.9493,-3.5665 -6.5084,-0.56815 -13.0365,-0.91351 -19.5482,-0.92945 m 0.8518,46.40307 c -0.9365,7.44268 -1.7041,14.90454 -2.584,22.35362 0.04,0.31645 -0.3133,0.96483 0.3892,0.95781 3.583,0.41629 7.1689,0.83051 10.7574,1.22267 0.8463,-7.74704 1.7018,-15.49528 2.6541,-23.22803 -3.7328,-0.49109 -7.4787,-0.86783 -11.2176,-1.30618 m 3.7293,47.12678 c -6.734,-0.47576 -13.5107,-0.59977 -20.155,0.0533 -1.4702,0.13815 -3.402,0.108 -4.2346,1.20993 -3.6116,13.7764 -5.8294,27.81147 -9.2745,41.61794 13.9184,0.92016 27.8419,2.02137 41.7065,3.68854 -0.01,0.0792 -0.017,0.24321 -0.021,0.32516 3.7243,0.34308 7.4334,0.84485 11.1559,1.2278 5.6594,0.79254 11.2822,1.8327 16.8517,3.045 0.8665,-14.54513 0.4459,-29.16753 0.8518,-43.7428 -4.991,-2.1181 -10.382,-3.47953 -15.7897,-4.59545 -6.9499,-1.38933 -14.0149,-2.31263 -21.0921,-2.82956 m -13.2132,45.70239 c -6.8858,-0.5598 -13.7941,-1.04418 -20.6817,-1.01369 -2.1769,0.655 -3.6403,2.17986 -4.8631,3.67635 12.3742,0.44165 24.7493,1.42258 37.0787,2.7816 14.0651,1.54728 28.0804,3.58147 41.9642,6.20006 -0.4447,-1.34068 -1.1668,-2.70395 -2.5272,-3.65629 -1.7224,-1.20065 -3.9895,-1.64327 -6.1308,-2.02255 -7.7842,-1.19227 -15.5459,-2.50892 -23.357,-3.53935 -7.1429,-0.96109 -14.3046,-1.77958 -21.4832,-2.42603 z"
           id="path5041" />
        <path
           style="opacity:1;fill:#436aa1;stroke:#436aa1;stroke-width:0.04800723"
           inkscape:connector-curvature="0"
           d="m 1255.0484,303.80858 c 3.8612,-1.76267 7.9206,-3.48623 12.3066,-3.63807 2.4421,-0.11747 4.8305,0.53862 7.0423,1.44451 -1.628,0.13219 -3.3203,0.1126 -4.8091,0.79322 -2.9508,1.19472 -4.7449,3.79964 -7.3583,5.42038 -1.9493,1.04294 -4.1129,-0.13712 -5.9391,-0.84711 -1.6119,-0.77363 -3.4113,-1.05761 -5.1893,-1.27308 1.13,-0.92054 2.6241,-1.27308 3.9469,-1.89985 z"
           id="path5105" />
        <path
           style="opacity:1;fill:#ffffff;stroke:#ffffff;stroke-width:0.03310025"
           inkscape:connector-curvature="0"
           d="m 1144.7947,99.272745 c 1.8286,-0.69437 3.7502,-1.299517 5.6816,-0.86117 2.3908,0.5392 4.8942,1.34218 6.7323,3.386495 2.1306,2.01715 3.0401,5.29115 3.5092,8.39447 0.1703,1.25297 -0.1381,2.58739 0.2186,3.79768 0.5623,0.93876 1.2661,-0.5198 1.8027,-0.84952 1.7225,-1.20255 4.2676,-1.18703 5.643,0.76807 0.5238,1.14822 0.6845,2.47101 0.8837,3.74725 2.4102,0.0892 4.605,-1.9163 7.0473,-1.46632 1.0862,0.40731 1.8639,1.51675 2.3909,2.68825 0.3149,0.52757 0.5431,1.33831 1.1665,1.41977 1.5136,0.0465 2.2752,2.1025 2.1466,3.7201 -2.0277,1.8038 -4.6435,1.24133 -6.9605,1.83483 -1.5135,0.24827 -2.9789,-0.57411 -4.4957,-0.34912 -1.4172,0.15905 -2.7926,-0.54696 -4.2001,-0.36463 -1.7482,1.16373 -4.0073,1.07063 -5.8101,0.11248 -1.0636,0.46163 -1.9988,1.47408 -3.175,1.43917 -1.5296,0.0621 -2.6672,-1.59433 -4.1808,-1.5827 -4.0715,0.008 -8.1399,-0.008 -12.205,-0.008 -1.1794,0.0271 -2.3652,0.4849 -3.5188,-0.008 -1.9282,-0.45773 -3.4128,-2.57962 -5.4631,-2.33524 -1.5039,0.0504 -3.0207,-0.1125 -4.5053,0.20948 -2.182,0.51592 -4.4894,0.79522 -6.3725,2.34688 -0.9223,0.83401 -2.153,0.71764 -3.1621,0.19784 -1.5393,-0.53921 -2.9854,-1.64089 -4.6308,-1.57106 -2.2109,0.0621 -4.4539,-0.49265 -6.3274,-1.95121 -0.1028,-1.3577 0.7006,-2.60679 1.7771,-2.94427 1.565,-0.5392 3.1878,-1.22969 4.8396,-0.87281 0.6459,0.0892 1.2951,0.38404 1.9602,0.23663 2.1017,-1.85812 3.9238,-4.16621 6.1572,-5.81872 2.9661,-2.19948 6.4207,-3.61925 9.933,-3.44857 1.5458,-0.0504 3.0175,0.59739 4.5344,0.86894 0.919,-1.47796 1.5103,-3.2003 2.4005,-4.69765 1.7096,-2.45551 3.6281,-4.91488 6.1828,-6.039825 z"
           id="path5043" />
        <path
           style="opacity:1;fill:#ffffff;stroke:#ffffff;stroke-width:0.02338921"
           inkscape:connector-curvature="0"
           d="m 1169.77,218.5647 c 6.5116,0.0159 13.0397,0.36128 19.5481,0.92944 7.7113,0.73831 15.4385,1.76075 22.9493,3.5665 0.2667,14.00998 -0.4547,27.97452 -0.2584,41.98094 -10.5457,-2.78729 -21.5108,-4.17395 -32.4252,-4.98664 -6.1709,-0.40057 -12.3606,-0.63616 -18.5122,-0.43514 3.0826,-13.6516 5.9987,-27.33548 8.6984,-41.0551 m 25.6683,4.56404 c -0.898,7.75008 -1.7853,15.50361 -2.6435,23.25821 3.7424,0.38298 7.4733,0.89177 11.2173,1.23478 0.8247,-7.75173 1.7465,-15.49019 2.6179,-23.23661 -3.7335,-0.41095 -7.4617,-0.86811 -11.1949,-1.25679 z"
           id="path5047" />
        <path
           style="opacity:1;fill:#114986;stroke:#114986;stroke-width:0.02338921"
           inkscape:connector-curvature="0"
           d="m 1195.4383,223.12874 c 3.7332,0.38868 7.4615,0.84605 11.1949,1.2568 -0.8703,7.74654 -1.7941,15.48477 -2.6178,23.23662 -3.7441,-0.34312 -7.4751,-0.85161 -11.2173,-1.23478 0.8562,-7.75482 1.7425,-15.50846 2.6434,-23.25821 z"
           id="path5049" />
        <path
           style="opacity:1;fill:#cae9fb;stroke:#cae9fb;stroke-width:0.05975322"
           inkscape:connector-curvature="0"
           d="m 1352.1998,316.23033 c 3.718,-1.63457 8.2356,-1.5573 12.0288,-0.14265 5.9392,2.11008 11.482,5.61104 18.1047,5.80718 3.0823,0.17238 5.8093,-1.19472 8.4133,-2.43105 -0.8817,0.91536 -1.9137,1.71779 -2.9184,2.52616 4.0119,-0.68355 8.1605,-0.92725 12.2202,-0.32692 7.3608,0.98669 13.9629,4.16667 20.4899,7.1089 12.0903,5.54566 26.1899,7.05541 39.6676,6.09844 l 0,0.0535 c -11.7964,2.45483 -24.4813,2.90656 -36.1342,-0.38636 -7.3471,-2.03875 -14.0176,-5.58726 -21.4604,-7.40609 -12.3773,-3.30481 -25.4859,-1.39682 -37.9726,0.36852 3.0755,4.34499 7.4906,8.08964 12.9309,10.11651 4.6338,1.84856 9.8007,2.0031 14.8104,2.00904 -2.4126,0.96886 -5.0439,1.38493 -7.6273,1.81289 9.2198,2.64503 17.9406,6.7166 27.591,8.14314 8.4065,1.2185 16.9223,0.24964 25.3356,-0.37447 -10.7165,2.70448 -22.0209,4.36283 -33.1611,2.90657 -8.7209,-1.20067 -16.5533,-5.17713 -25.2605,-6.42535 -8.796,-1.04019 -17.7287,-0.0297 -26.3061,1.75939 -4.873,0.95697 -9.6093,2.37162 -14.5029,3.22754 11.0993,-4.61841 22.841,-8.2858 35.1022,-9.60534 -6.0554,-2.06253 -9.9579,-6.75821 -14.6737,-10.37805 -3.349,-2.6272 -7.5249,-4.68379 -12.104,-4.88588 -6.8755,-0.47551 -13.3068,2.00904 -19.5194,4.1845 4.1212,-3.79815 9.8964,-5.68236 15.241,-7.83405 3.6291,-1.46815 6.0964,-4.41632 9.705,-5.92607 m -1.5856,3.92892 c 1.6813,0.17237 3.4993,0.13076 5.0097,0.94508 2.7475,1.2601 4.4766,3.61983 6.9507,5.18902 1.6403,1.09962 3.7317,0.20209 5.3856,-0.3923 1.9752,-0.85592 4.1008,-1.37304 6.24,-1.83666 -4.7432,-1.90205 -9.2813,-4.42821 -14.5029,-5.19497 -3.0619,-0.38041 -6.4381,-0.2437 -9.0831,1.28983 z"
           id="path5067" />
        <path
           style="opacity:1;fill:#114986;stroke:#114986;stroke-width:0.02338921"
           inkscape:connector-curvature="0"
           d="m 1170.6218,264.96778 c 3.7389,0.43824 7.4847,0.81507 11.2176,1.30617 -0.9523,7.73276 -1.8078,15.48099 -2.6541,23.22805 -3.5886,-0.39217 -7.1745,-0.80639 -10.7575,-1.22268 -0.7024,0.007 -0.3488,-0.64125 -0.3892,-0.95782 0.8829,-7.44875 1.6465,-14.91107 2.584,-22.35363 z"
           id="path5069" />
        <path
           style="opacity:1;fill:#436aa1;stroke:#436aa1;stroke-width:0.05975322"
           inkscape:connector-curvature="0"
           d="m 1350.6142,320.15925 c 2.645,-1.53353 6.0212,-1.67024 9.0831,-1.28983 5.2216,0.76676 9.7597,3.29292 14.5029,5.19497 -2.1392,0.46362 -4.2648,0.98074 -6.24,1.83666 -1.6539,0.59439 -3.7453,1.49192 -5.3856,0.3923 -2.4741,-1.56919 -4.2032,-3.92892 -6.9507,-5.18902 -1.5104,-0.81432 -3.3284,-0.77271 -5.0097,-0.94508 z"
           id="path5071" />
        <path
           style="opacity:1;fill:#ffffff;stroke:#ffffff;stroke-width:0.02338921"
           inkscape:connector-curvature="0"
           d="m 1174.351,312.09451 c 7.0773,0.51695 14.1423,1.44024 21.0921,2.82956 5.4076,1.11593 10.7987,2.47736 15.7898,4.59548 -0.4061,14.57523 0.015,29.19764 -0.852,43.74279 -5.5694,-1.21232 -11.1922,-2.25247 -16.8516,-3.04501 0.8706,-7.74871 1.7475,-15.49898 2.6422,-23.2472 -3.728,-0.43469 -7.4607,-0.853 -11.1898,-1.27685 -0.8562,7.6568 -1.7713,15.30915 -2.5877,22.97046 -13.8646,-1.66721 -27.7879,-2.7684 -41.7064,-3.68857 3.4451,-13.80648 5.6629,-27.84156 9.2744,-41.61796 0.8326,-1.10192 2.7646,-1.07172 4.2347,-1.20991 6.6442,-0.65305 13.421,-0.52899 20.1549,-0.0533 z"
           id="path5093" />
        <path
           style="opacity:1;fill:#114986;stroke:#114986;stroke-width:0.02338921"
           inkscape:connector-curvature="0"
           d="m 1184.9816,335.69383 c 3.7286,0.42882 7.4618,0.84206 11.1899,1.27685 -0.8948,7.74821 -1.7716,15.49849 -2.6423,23.2472 -3.7225,-0.38295 -7.4316,-0.88482 -11.1559,-1.22781 -6e-4,-0.0825 0.014,-0.24576 0.02,-0.32526 0.8164,-7.66132 1.7305,-15.31379 2.5876,-22.97049 z"
           id="path5101" />
        <path
           style="opacity:1;fill:#ffffff;stroke:#ffffff;stroke-width:0.02338921"
           inkscape:connector-curvature="0"
           d="m 1161.1377,357.79691 c 7.1785,0.64656 14.3404,1.46504 21.4832,2.42603 7.8111,1.03037 15.5728,2.34706 23.357,3.5393 2.1413,0.37927 4.4084,0.82189 6.1309,2.02257 1.3603,0.95231 2.0824,2.31558 2.5271,3.65626 -13.8838,-2.61857 -27.8992,-4.65272 -41.9642,-6.20005 -12.3293,-1.35895 -24.7045,-2.33994 -37.0787,-2.78156 1.2228,-1.49654 2.6863,-3.02138 4.8631,-3.67639 6.8876,-0.0305 13.796,0.45394 20.6816,1.01374 z"
           id="path5117" />
      </g>
      <g
         id="g5332">
        <g
           transform="translate(243.41,-727.79)"
           id="g7563">
          <rect
             id="rect7559"
             style="fill:#ffffff;stroke:#000000;stroke-width:8"
             height="457.14001"
             width="442.85999"
             y="578.08002"
             x="28.570999" />
          <rect
             id="rect7561"
             style="fill:#cae9fb;fill-opacity:1;stroke:#000000;stroke-width:8"
             height="308.57001"
             width="397.14001"
             y="609.51001"
             x="51.429001" />
        </g>
        <path
           style="opacity:1;fill:#ffffff;stroke:#ffffff;stroke-width:0.07441698"
           inkscape:connector-curvature="0"
           d="m 450.13211,-90.692192 c 3.73036,-2.609835 8.8218,-4.619708 13.55196,-2.999811 6.24247,2.212361 11.60276,6.089616 16.25731,10.356847 3.72195,3.299792 5.33508,7.934499 6.56173,12.366715 1.52911,9.5919 -3.90679,18.45634 -5.05783,27.81575 -6.4105,4.6872 -7.67076,12.77919 -6.30128,19.68625 2.34408,12.02175 9.21668,22.85855957 16.75301,32.8704296 8.88901,11.3617804 19.29873,21.8086204 31.06953,30.8530504 10.86341,8.32448 22.85265,15.72651 36.371,20.17373 -3.22626,0.84745 -6.25928,2.31735 -9.59475,2.76733 -7.18347,-0.0372 -13.31671,-3.86226 -19.07189,-7.25955 -5.04942,-3.00731 -10.52734,-6.61458 -16.94625,-5.98462 -7.04063,0.65246 -13.84601,2.50484 -20.77743,3.71227 -10.62816,-3.32979 -21.00427,-7.28204 -31.61563,-10.64183 -1.68034,-0.80995 -3.35228,-1.6124 -4.73857,-2.76733 -6.50292,-5.30966 -14.56016,-8.87944 -20.71861,-14.53408 -5.66276,-4.98718 -8.87221,-11.69176 -11.2919,-18.3363404 -4.20926,-12.14174 -4.67975,-25.9108696 1.89038,-37.4751396 2.9322,-5.81963 8.04884,-10.60433 10.38452,-16.67145 1.42829,-3.37478 -0.19324,-7.15454 -3.35229,-9.22441 -0.20164,-5.30217 -0.88217,-10.58183 -0.983,-15.876499 l 0.10923,-0.517467 c 3.25146,-2.564839 4.56213,-6.442094 7.72957,-9.066928 3.35228,-3.007311 5.8896,-6.712077 9.77119,-9.246917 m 4.01602,12.546708 c -3.48671,1.102431 -4.35209,5.812134 -1.32747,7.777013 3.04982,2.63983 8.89741,0.46497 8.8806,-3.329793 0.34447,-3.427284 -4.18405,-5.842132 -7.55313,-4.44722 z"
           id="path5119" />
        <path
           style="opacity:1;fill:#114986;stroke:#114986;stroke-width:0.07441698"
           inkscape:connector-curvature="0"
           d="m 454.14813,-78.145484 c 3.36908,-1.394912 7.8976,1.019936 7.55313,4.44722 0.0168,3.794763 -5.83078,5.969623 -8.8806,3.329793 -3.02462,-1.964879 -2.15924,-6.674582 1.32747,-7.777013 m -0.26046,4.312228 c 0.72255,0.787451 1.55432,1.919879 2.9154,1.627398 1.58792,-0.15749 1.4955,-1.799887 1.45349,-2.849821 -1.71395,-1.012436 -3.55392,-0.367476 -4.36889,1.222423 z"
           id="path5121" />
        <path
           style="opacity:1;fill:#ffffff;stroke:#ffffff;stroke-width:0.07441698"
           inkscape:connector-curvature="0"
           d="m 453.88767,-73.833256 c 0.81497,-1.589899 2.65494,-2.234859 4.36889,-1.222423 0.042,1.049934 0.13443,2.692331 -1.45349,2.849821 -1.36108,0.292481 -2.19285,-0.839947 -2.9154,-1.627398 z"
           id="path5123" />
        <path
           style="opacity:1;fill:#ffba00;stroke:#ffba00;stroke-width:0.07441698"
           inkscape:connector-curvature="0"
           d="m 410.16517,-67.098681 c 7.09105,-2.78232 15.10628,-2.44485 22.35695,-4.762199 0.10083,5.294669 0.78136,10.574329 0.983,15.876499 -8.15806,-0.82495 -16.01365,-3.03731 -24.05409,-4.38722 -1.29386,-0.16499 -2.63814,-0.71996 -2.73896,-2.02488 0.37808,-1.88238 1.37788,-3.89225 3.4531,-4.7022 z"
           id="path5125" />
        <path
           style="opacity:1;fill:#ababab;stroke:#ababab;stroke-width:0.07441698"
           inkscape:connector-curvature="0"
           d="m 475.144,-23.466441 c -1.36948,-6.90706 -0.10922,-14.99905 6.30128,-19.68625 -0.39488,2.66983 0.0756,5.54965 1.966,7.73201 3.11704,3.73476 7.822,6.00712 11.43473,9.31441 2.14244,1.82989 3.9068,4.16974 6.73817,5.24217 2.33568,1.07243 5.15025,1.6574 6.8558,3.58477 1.77276,1.97238 3.09183,4.23724 4.9066,6.20211 2.60453,2.8873196 6.09124,4.9721896 9.08225,7.5220296 4.78057,4.02723997 9.11585,8.65445 14.98865,11.48177 3.88999,1.95738 8.62855,1.29742 12.64457,2.9698204 2.13404,0.92994 3.89839,2.39984 5.74677,3.72726 5.93161,4.85969 14.70299,2.86482 21.72682,5.44466 8.02364,2.98481 16.87064,0.85494 25.12952,2.75982 7.95642,1.73239 16.33292,3.01481 23.21392,7.26704 0.0336,2.21237 0.042,4.43223 0.0336,6.65958 -2.68014,1.10993 -5.20906,2.64734 -8.15806,3.11231 -10.85501,1.41741 -21.78563,-0.0675 -32.66585,-0.17999 -7.57834,-0.075 -15.58517,-0.39748 -22.5838,2.64733 2.4197,2.10737 5.53673,3.66727 7.41031,6.24711 1.08382,2.51234 1.15944,5.81213 -1.05021,7.897 -2.36088,2.53484 -6.30128,2.79732 -9.52754,3.95225 -13.51835,-4.44722 -25.50759,-11.84925 -36.371,-20.17373 C 511.19573,31.212609 500.78601,20.765769 491.897,9.4039886 484.36067,-0.60788143 477.48807,-11.444691 475.14399,-23.466441 Z"
           id="path5127" />
        <path
           style="opacity:1;fill:#e2a701;stroke:#e2a701;stroke-width:0.07441698"
           inkscape:connector-curvature="0"
           d="m 459.65125,43.219359 c 0.42008,-0.0522 1.26025,-0.14999 1.68034,-0.19499 10.61136,3.35979 20.98747,7.31204 31.61563,10.64183 -1.025,6.3371 -1.29386,12.74169 -1.66353,19.12379 -0.15123,2.21986 -0.37808,4.43222 -0.62173,6.65958 -0.16803,1.41741 -0.36127,2.84232 -0.62173,4.27473 -0.26885,0.99744 -0.55451,2.02488 -0.86537,3.03731 -3.24306,-0.0372 -6.51133,-0.16499 -9.61156,-1.04993 -2.89859,-0.62246 -6.12485,-1.6424 -9.00663,-0.56997 -1.49551,1.77739 -1.32747,4.15474 -1.75596,6.26211 -1.83998,0.0975 -3.68835,0.33748 -5.50312,0.09 -1.9408,-0.89994 -3.4279,-2.88732 -5.85599,-2.55734 -3.94881,-0.10499 -7.01543,2.87232 -10.96423,2.64734 -4.78898,-0.0825 -9.56955,0.0372 -14.34172,-0.045 -1.9492,0.18749 -3.95721,-1.5299 -3.78918,-3.2398 0.71415,-1.61989 1.84838,-3.0298 2.78937,-4.52971 -0.10922,-0.20249 -0.32766,-0.59996 -0.43689,-0.79495 -0.16803,-0.14249 -0.4957,-0.41997 -0.66373,-0.56246 -1.78116,-1.25243 -3.15904,-2.88732 -3.64634,-4.8822 4.30167,-0.95244 8.67056,0.75746 12.95543,-0.0975 1.31907,-1.5149 0.9746,-3.93725 2.84818,-5.06218 2.09203,-0.20999 4.11684,0.48747 5.95682,1.31992 1.42829,0.95994 2.74735,2.05487 4.28487,2.90981 1.57112,0.59247 3.33548,0.19499 4.99902,0.13499 l 0.31086,-1.34991 c 0.11762,-0.66746 0.24365,-1.32742 0.36967,-1.96488 0.34447,-2.02487 0.61333,-4.04974 0.73935,-6.07462 0.52931,-8.03949 0.21845,-16.09398 0.79817,-24.12597 m 12.56896,7.927 c -2.83138,4.43222 -1.89039,9.79438 -1.97441,14.68407 -0.0336,2.28736 -0.084,4.58221 -0.0924,6.88457 l -0.39488,-0.045 c -0.0168,0.50247 -0.0504,1.50741 -0.0672,2.01737 2.83138,0.68246 5.78878,0.37498 8.58655,-0.31498 0.54611,-0.25498 1.62993,-0.76495 2.17604,-1.01243 -0.24365,-1.83739 -0.4957,-3.65227 -0.73095,-5.45966 -0.33607,-6.17961 0.11763,-12.6217 -2.60453,-18.44884 -1.78956,-0.015 -3.9656,0.0975 -4.89819,1.6949 z"
           id="path5129" />
        <path
           style="opacity:1;fill:#cae9fb;stroke:#cae9fb;stroke-width:0.07441698"
           inkscape:connector-curvature="0"
           d="m 458.85308,67.345329 c -0.12602,2.02488 -0.39488,4.04975 -0.73935,6.07462 -1.4871,0.60746 -2.9658,1.20743 -4.4277,1.84489 1.34428,0.03 2.69695,0.0675 4.05803,0.11999 l -0.31086,1.34991 c -1.66354,0.06 -3.4279,0.45748 -4.99902,-0.13499 -1.53752,-0.85494 -2.85658,-1.94987 -4.28487,-2.90981 3.31867,-2.42985 6.80538,-4.69471 10.70377,-6.34461 z"
           id="path5135" />
        <path
           style="opacity:1;fill:#cae9fb;stroke:#cae9fb;stroke-width:0.07441698"
           inkscape:connector-curvature="0"
           d="m 490.66196,79.449569 c 0.24365,-2.22736 0.4705,-4.43972 0.62173,-6.65958 8.02363,3.2248 16.79501,6.66708 25.80165,5.05468 3.76396,-0.46497 6.79698,-2.67733 10.29209,-3.81726 -1.58792,1.76239 -3.78077,2.96982 -5.72996,4.37973 10.99784,-1.88238 22.51658,-1.5599 33.16995,1.67989 14.7198,4.05725 27.46519,12.24673 42.16818,16.36397 17.82003,5.287171 36.8163,6.067121 55.44289,5.692141 -19.07188,3.2473 -38.97554,4.6947 -58.02221,0.51747 -16.34973,-3.307291 -30.69985,-11.586771 -46.88155,-15.329031 -18.91225,-4.74721 -38.8411,-2.84982 -57.9718,-0.31498 l -0.37807,-0.25499 c 0.31086,-1.01243 0.59652,-2.03987 0.86537,-3.03731 2.37769,-0.47247 4.77217,-0.82494 7.19187,-1.16242 -1.75596,-1.6799 -4.26807,-2.30236 -6.57014,-3.11231 z"
           id="path5143" />
        <path
           style="opacity:1;fill:#cae9fb;stroke:#cae9fb;stroke-width:0.07441698"
           inkscape:connector-curvature="0"
           d="m 430.03522,82.411889 c 0.16803,0.14249 0.4957,0.41997 0.66373,0.56246 -3.9236,1.99487 -7.4019,4.58221 -10.813,7.19955 -2.63813,0.97493 -5.29307,1.91238 -8.00683,2.69233 5.13345,-4.59721 11.82121,-7.42454 18.1561,-10.45434 z"
           id="path5151" />
        <path
           style="opacity:1;fill:#ad552f;stroke:#ad552f;stroke-width:0.05300463"
           inkscape:connector-curvature="0"
           d="m 430.6934,82.963646 c 0.10925,0.0989 0.32774,0.300504 0.43698,0.403209 -0.94119,0.760776 -2.07566,1.475901 -2.78997,2.297532 -0.16806,0.867285 1.84038,1.738369 3.78999,1.643271 4.77319,0.04184 9.55477,-0.01887 14.34477,0.02282 3.94964,0.114113 7.01692,-1.39602 10.96657,-1.342768 2.4286,-0.16737 3.91602,0.840657 5.85723,1.297119 1.81516,0.12553 3.66392,0.0041 5.50429,-0.04565 0.42859,-1.068887 0.26051,-2.274712 1.75634,-3.176228 2.88239,-0.543952 6.10934,-0.02648 9.00854,0.289096 3.10089,0.448854 6.36986,0.513519 9.61361,0.532539 l 0.37815,0.129335 c 7.02532,2.68172 12.66407,6.177473 15.28596,10.198158 1.64709,2.301335 1.80676,4.73581 2.28576,7.132241 0,28.03827 0.008,56.08036 -0.008,84.11863 l -100.6403,0 c 0.0336,-25.1131 0,-50.22241 0.0168,-75.33171 0.12605,-3.68595 -0.31093,-7.37569 0.30252,-11.05022 0.4706,-3.636493 3.07569,-7.181694 7.47911,-10.228589 1.73953,-1.122139 3.67234,-2.183418 5.59673,-3.237084 3.41183,-1.327551 6.89087,-2.639886 10.81531,-3.651711 z"
           id="path5153" />
      </g>
      <g
         transform="translate(962.17702,-94.233837)"
         id="g5356">
        <g
           transform="matrix(0.96593,-0.25882,0.25882,0.96593,-628.27571,-421.31857)"
           id="g7567">
          <rect
             x="28.570999"
             y="578.08002"
             width="442.85999"
             height="457.14001"
             style="fill:#ffffff;stroke:#000000;stroke-width:8"
             id="rect7569" />
          <rect
             x="51.429001"
             y="609.51001"
             width="397.14001"
             height="308.57001"
             style="fill:#cae9fb;fill-opacity:1;stroke:#000000;stroke-width:8"
             id="rect7571" />
          <path
             sodipodi:nodetypes="cccccc"
             inkscape:connector-curvature="0"
             id="path5325"
             d="M 55.467622,769.61246 55.2527,915.17313 444.58015,914.19049 445.55837,777.84768 66.804407,770.44605 Z"
             style="fill:#436aa1;fill-opacity:1;fill-rule:evenodd;stroke:none;stroke-width:1px;stroke-linecap:butt;stroke-linejoin:miter;stroke-opacity:1" />
        </g>
        <path
           style="opacity:1;fill:#ffffff;stroke:#ffffff;stroke-width:0.03484187"
           inkscape:connector-curvature="0"
           d="m -318.35333,150.73774 c 1.96994,-1.17064 4.28185,-1.51333 6.52577,-1.69363 2.37266,-0.27104 4.78583,-0.29737 7.1309,0.0936 1.3055,0.23262 2.68027,-0.0992 3.95467,0.32171 1.4199,0.35528 2.50579,1.34331 3.75869,2.01495 1.41038,0.17708 2.24182,-1.29928 3.3389,-1.93682 1.59548,-0.91006 3.26138,-1.95254 5.15949,-1.98634 1.80512,-0.0828 3.61951,0.73089 4.67309,2.13549 0.96883,1.73891 1.0994,3.82134 2.20298,5.49828 1.30566,-0.42771 2.57912,-0.96014 3.78352,-1.62317 1.59777,-0.59047 3.22506,0.12191 4.65323,0.75619 2.00533,0.17242 4.23376,-0.11055 5.95387,1.10245 0.87501,0.3774 1.6771,1.51749 0.79216,2.3289 -1.55397,1.63321 -4.0341,2.32363 -6.2481,2.10355 -1.29002,0.0787 -2.47297,0.74586 -3.45443,1.54427 -1.9772,1.567 -4.10221,2.97266 -6.38216,4.06888 -2.14499,0.74495 -4.47596,0.6846 -6.61473,0.0795 -1.8004,0.29351 -3.54727,1.03189 -5.11893,1.96461 -1.10782,0.71076 -2.46936,0.55927 -3.71296,0.73774 -1.69305,0.12905 -3.07519,1.22797 -4.64317,1.75398 -4.52641,1.55885 -9.04891,3.12905 -13.5634,4.71075 -1.68615,0.57804 -3.12183,1.71901 -4.87696,2.12045 -1.62526,0.6153 -3.39791,-0.23981 -4.98503,0.54379 -1.86377,0.89844 -4.10648,1.04739 -5.67471,2.48859 -2.16686,1.77151 -4.58287,3.49387 -7.44322,3.87155 -0.68056,-0.79978 0.30573,-1.87401 0.0818,-2.81217 -0.41913,-1.94419 0.24556,-4.05412 1.73749,-5.46126 0.73347,-0.8093 1.80423,-1.23313 2.55203,-2.0242 0.48429,-0.88157 0.30573,-1.92034 0.44193,-2.87091 0.63074,-4.44583 2.31667,-8.88535 5.53317,-12.24331 1.50385,-1.4769 2.90522,-3.07671 4.63914,-4.31643 1.83883,-1.24892 3.89334,-2.13988 5.80488,-3.27104 z"
           id="path5015" />
        <path
           style="opacity:1;fill:#bb1f2d;stroke:#bb1f2d;stroke-width:0.03484187"
           inkscape:connector-curvature="0"
           d="m -187.65648,119.81007 c -1.68089,-5.01831 -3.59905,-9.9701 -4.96993,-15.08774 1.94834,3.69421 4.76954,6.8901 6.39949,10.75218 2.61414,6.16713 4.46034,12.61491 6.55477,18.96924 1.35676,4.28849 2.94035,8.5025 4.36244,12.77229 9.96904,28.79851 19.87197,57.616 29.8448,86.41319 7.70654,22.14313 15.25221,44.34182 22.97533,66.47537 23.984158,-6.03509 48.020722,-11.87205 72.031113,-17.80809 0.21431,-3.20544 0.215233,-6.47233 1.247413,-9.58181 0.796032,-2.80784 2.448038,-5.38615 4.703165,-7.33097 0.363748,-0.3959 0.89911,-0.51514 1.402295,-0.66959 -0.379662,1.85706 -1.314879,3.56618 -1.603923,5.44216 -0.944682,5.69329 -0.328686,11.44228 0.242014,17.10651 -57.832057,16.61928 -116.069107,31.77601 -173.940487,48.24668 -3.44116,0.89875 -6.68696,2.47908 -10.19958,3.11288 -1.43437,0.27524 -2.8936,0.0262 -4.22526,-0.46764 -3.81466,-2.10761 -8.27837,-2.57014 -12.6158,-2.806 -5.85513,-0.38748 -11.74867,0.21519 -17.60264,-0.007 18.23013,-5.51534 36.89378,-9.3579 55.32997,-14.0679 20.6408,-5.17785 41.29118,-10.31655 61.94271,-15.45178 6.80954,-1.7646 13.69171,-3.23764 20.45839,-5.1612 -7.59128,-22.04006 -14.99598,-44.14457 -22.61914,-66.17362 -6.13522,-17.89399 -12.39079,-35.74255 -18.55087,-53.62796 -7.13005,-20.32279 -14.13844,-40.68759 -21.16603,-61.04964 z"
           id="path5021" />
        <path
           style="opacity:1;fill:#bb1f2d;stroke:#bb1f2d;stroke-width:0.03484187"
           inkscape:connector-curvature="0"
           d="m -181.59333,118.17966 c 13.28916,-4.62378 26.60459,-9.18299 39.90194,-13.79456 0.83349,-0.28783 1.67293,-0.66266 2.58027,-0.65548 -0.55847,1.74504 -2.0706,2.93135 -3.13688,4.37684 -8.70202,11.5074 -19.92645,21.5305 -33.3042,27.57881 -1.98926,-5.84236 -4.01133,-11.6734 -6.0409,-17.50568 z"
           id="path5023" />
        <path
           style="opacity:1;fill:#ffffff;stroke:#ffffff;stroke-width:0.03484187"
           inkscape:connector-curvature="0"
           d="m -180.25811,152.79375 c 0.35992,0.49738 0.7139,1.00065 0.94145,1.57849 4.08306,10.1775 7.27302,20.67883 10.89106,31.02851 5.84221,16.69781 11.49132,33.46229 17.39074,50.14035 6.32942,18.18988 12.57562,36.40463 18.87475,54.60111 -27.25073,9.41033 -54.49795,18.83099 -81.7571,28.22847 -1.969,-10.87278 -3.64942,-21.84908 -4.0362,-32.92846 -0.005,-0.3845 -0.0248,-0.76753 -0.039,-1.14488 -0.23374,-8.43326 -0.21824,-16.88693 0.14893,-25.33076 0.18321,-7.08679 0.56911,-14.18953 1.73354,-21.21746 2.15454,-13.29679 4.37949,-26.63336 8.16023,-39.63838 1.04412,-3.16766 1.96664,-6.38598 3.42204,-9.41766 2.46108,-5.00066 5.86267,-9.49209 9.18083,-13.98175 5.2289,-7.165 11.50087,-13.77898 15.08831,-21.91778 z"
           id="path5039" />
        <path
           style="opacity:1;fill:#ffffff;stroke:#ffffff;stroke-width:0.03484187"
           inkscape:connector-curvature="0"
           d="m -154.68407,196.02306 c 8.40424,4.49975 16.89673,8.87248 25.01229,13.85804 2.45452,1.3224 4.57746,3.11066 6.54535,5.04128 3.04075,2.61423 5.96819,5.35254 8.74897,8.23418 5.07169,5.04048 9.84882,10.36416 14.43633,15.8344 2.524444,2.74234 4.415688,5.95817 6.60269,8.95218 5.330891,7.58818 10.373182,15.44205 14.040595,23.96376 -14.669861,5.01952 -29.305315,10.12724 -43.967925,15.15621 -6.29491,-18.19407 -12.56071,-36.3982 -18.85998,-54.59076 -4.19459,-12.14682 -8.46192,-24.27238 -12.55852,-36.44916 z"
           id="path5045" />
        <path
           style="opacity:1;fill:#cae9fb;stroke:#cae9fb;stroke-width:0.03484187"
           inkscape:connector-curvature="0"
           d="m -250.82175,294.97805 c 6.13614,-2.56685 11.28682,-7.05994 17.6696,-9.09803 4.8698,-1.68906 10.08834,-1.95085 15.16016,-1.58247 0.0139,0.37737 0.0343,0.76038 0.039,1.14489 -0.0228,-0.16975 -0.0666,-0.50598 -0.0881,-0.67234 -0.50667,-0.0876 -1.01694,-0.10443 -1.52129,-0.0461 -5.28193,0.56523 -10.64139,1.33486 -15.55415,3.49083 -2.3896,1.01051 -4.51342,2.50073 -6.68733,3.88081 -5.0168,3.3155 -11.08359,5.23676 -17.10927,5.01629 2.765,-0.3988 5.53005,-0.98297 8.09133,-2.13386 z"
           id="path5059" />
        <path
           style="opacity:1;fill:#a7ceeb;stroke:#a7ceeb;stroke-width:0.03484187"
           inkscape:connector-curvature="0"
           d="m -232.83291,338.15476 c 1.33164,0.49386 2.79088,0.74288 4.22525,0.46764 3.51263,-0.6338 6.75841,-2.21413 10.19957,-3.11287 57.87138,-16.47068 116.10844,-31.62741 173.940502,-48.24669 -0.03244,0.87997 -0.09468,1.76637 -0.109244,2.65175 -60.519888,18.1807 -121.249428,35.64995 -181.859838,53.52213 1.01072,1.15298 2.0417,2.2951 3.08106,3.42661 -3.20998,-2.84925 -6.36512,-5.75991 -9.4773,-8.70857 z"
           id="path5073" />
        <path
           style="opacity:1;fill:#bb1f2d;stroke:#bb1f2d;stroke-width:0.03484187"
           inkscape:connector-curvature="0"
           d="m -226.43667,343.43672 c 60.61041,-17.87218 121.33995,-35.34143 181.859838,-53.52213 0.148362,2.38905 -0.237402,4.78494 -0.978461,7.07956 -2.052427,6.17236 -5.724952,11.67631 -9.236531,17.15943 -1.690163,2.60693 -3.143222,5.77294 -6.2995,6.97486 -5.215601,2.16016 -10.79452,3.25654 -16.057769,5.27871 -3.779427,-0.2548 -7.624471,-0.2823 -11.360081,0.54049 -3.123933,0.62315 -6.054898,1.94417 -8.796365,3.52411 0.54753,-1.01152 1.489675,-1.84267 1.695045,-2.99859 -1.200926,1.21783 -2.267236,2.64017 -3.855556,3.40874 -3.69777,1.97581 -8.01013,1.70813 -12.01128,1.3098 -3.06047,-0.23665 -6.18762,-0.85183 -9.24601,-0.10846 -2.2607,0.57217 -4.41544,1.70624 -5.98613,3.43016 -1.9893,2.08857 -3.05478,4.83501 -5.12629,6.8593 -1.72213,1.66811 -3.68022,3.09336 -5.31768,4.84421 -8.31206,2.57303 -16.46325,5.66971 -24.73122,8.39355 -0.58166,-0.65246 -1.24557,-1.23019 -1.925,-1.77166 -4.01707,1.02809 -6.95805,4.05923 -10.22314,6.37213 -2.00792,0.55053 -3.94796,1.34408 -5.97852,1.80583 -3.428,0.78607 -6.9415,0.36222 -10.37634,0.0618 -3.20114,-0.3541 -6.42261,-0.51199 -9.61301,-0.92773 -2.75998,-0.31723 -5.58319,-0.77097 -8.03054,-2.08426 -5.89254,-3.03492 -10.74379,-7.5762 -15.3244,-12.20323 -1.03936,-1.13151 -2.07034,-2.27363 -3.08106,-3.42661 z"
           id="path5075" />
        <path
           style="opacity:1;fill:#cae9fb;stroke:#cae9fb;stroke-width:0.03484187"
           inkscape:connector-curvature="0"
           d="m -126.70947,335.5134 c 1.57069,-1.72392 3.72543,-2.85799 5.98613,-3.43016 3.05839,-0.74337 6.18554,-0.12818 9.24601,0.10846 4.00115,0.39833 8.31351,0.66601 12.01128,-1.3098 1.58832,-0.76857 2.65463,-2.19091 3.855556,-3.40874 -0.20537,1.15592 -1.147515,1.98707 -1.695045,2.99859 2.741467,-1.57994 5.672432,-2.90096 8.796365,-3.52411 3.73561,-0.82279 7.580654,-0.79529 11.360081,-0.54049 4.563904,0.41635 9.085943,1.26804 13.696458,1.20495 5.17446,-0.007 10.334819,-0.86602 15.343918,-2.19808 3.234856,-0.77728 6.304122,-2.11518 9.525859,-2.93042 -8.504583,4.79795 -17.993714,8.48406 -27.85857,8.5893 -6.853196,0.10777 -13.688124,-1.14605 -20.548716,-0.17853 -9.499149,1.21066 -18.080006,5.84575 -26.473596,10.15359 4.03616,3.13156 9.14208,5.12917 14.41434,4.99974 3.65312,-0.007 7.199222,-1.11147 10.582064,-2.4341 -1.503926,1.63909 -3.601358,2.53328 -5.492603,3.64199 6.819839,-0.16962 13.647748,0.50746 20.467701,-0.1487 8.012261,-0.7397 15.420798,-4.21316 22.643323,-7.5413 -6.599297,4.58792 -13.814792,8.45805 -21.63431,10.55597 -6.668885,1.96314 -13.636283,1.18366 -20.451426,1.62193 -4.77274,0.26584 -9.375349,1.83592 -13.763379,3.66782 -7.05907,2.98983 -13.31138,7.44631 -19.71978,11.55515 -0.0548,-0.0313 -0.16333,-0.0903 -0.2146,-0.12283 7.33311,-6.52092 15.10129,-12.77892 24.14461,-16.898 -7.27762,-0.0198 -12.86307,-5.46978 -20.0034,-6.01966 -4.05005,-0.37757 -8.04697,1.19572 -11.44432,3.29947 -2.77609,1.6884 -5.20056,3.85004 -7.6441,5.95646 0.87101,-2.34721 2.84349,-4.06704 4.42618,-5.96499 1.63746,-1.75085 3.59555,-3.1761 5.31768,-4.84421 2.07151,-2.02429 3.13699,-4.77073 5.12629,-6.8593 m -0.24663,3.65679 c 1.23532,-0.56173 2.54581,-1.14942 3.93715,-1.03912 2.23549,0.0505 4.18813,1.16006 6.18018,1.96643 0.92866,0.43997 2.02304,0.88451 3.07472,0.46342 1.35813,-0.51925 2.46249,-1.54152 3.33316,-2.66075 1.10184,-0.70485 2.15364,-1.49665 3.43069,-1.89131 -0.15261,-0.10562 -0.45895,-0.32031 -0.61154,-0.42592 -3.61849,-0.17138 -7.20938,-0.98166 -10.85429,-0.54542 -3.21083,0.31338 -6.34692,1.71296 -8.49007,4.13267 z"
           id="path5077" />
        <path
           style="opacity:1;fill:#bb1f2d;stroke:#bb1f2d;stroke-width:0.03484187"
           inkscape:connector-curvature="0"
           d="m -126.9561,339.17019 c 2.14315,-2.41971 5.27924,-3.81929 8.49007,-4.13267 3.64491,-0.43624 7.2358,0.37404 10.85429,0.54542 0.15259,0.10561 0.45893,0.3203 0.61154,0.42592 -1.27705,0.39466 -2.32885,1.18646 -3.43069,1.89131 -2.15463,0.68226 -4.28307,1.42879 -6.40787,2.19734 -1.99206,-0.80638 -3.9447,-1.91597 -6.18019,-1.96644 -1.39134,-0.1103 -2.70183,0.47739 -3.93715,1.03912 z"
           id="path5079" />
        <path
           style="opacity:1;fill:#cae9fb;stroke:#cae9fb;stroke-width:0.03484187"
           inkscape:connector-curvature="0"
           d="m -242.41676,377.97197 c 10.73438,-5.62199 23.41608,-3.9585 34.50305,-8.45509 1.90666,-0.73945 3.62622,-1.84684 5.43516,-2.77655 -3.49409,2.57733 -7.19199,5.00493 -11.3403,6.42973 -4.62172,1.7002 -9.57919,1.80204 -14.39612,2.44996 -4.77519,0.52538 -9.40877,2.04052 -13.71465,4.14524 -4.19256,1.98063 -7.95851,4.69817 -12.04264,6.85372 3.65754,-3.11255 7.22573,-6.42592 11.5555,-8.64701 z"
           id="path5081" />
        <path
           style="opacity:1;fill:#436aa1;stroke:#436aa1;stroke-width:0.03484187"
           inkscape:connector-curvature="0"
           d="m -116.83877,340.0975 c 2.12483,-0.76846 4.25325,-1.51508 6.40787,-2.19734 -0.87066,1.11923 -1.975,2.14156 -3.33315,2.66076 -1.05171,0.42104 -2.14606,-0.0234 -3.07472,-0.46342 z"
           id="path5087" />
        <path
           id="path5327"
           d="m -99.889053,135.92725 c 1.616272,-1.16222 7.048125,11.63674 8.974995,11.42181 2.515112,0.0206 5.603454,-5.49799 7.731279,-3.71995 4.236169,2.38874 2.382741,2.5636 5.64917,6.2449 2.707448,-2.43011 6.37847,-3.3026 9.968527,-2.52509 5.298569,1.2042 10.083933,4.94316 14.241866,9.13762 0.675551,0.61363 1.242178,1.4514 2.028372,1.86291 2.63116,-0.94075 6.596413,1.25537 9.415258,2.91949 1.447251,0.70815 3.040345,1.91767 3.096543,3.91823 -0.709568,1.30288 -1.684098,2.36754 -2.737965,3.27188 -1.154789,0.57694 -3.221963,-2.0333 -4.462357,-1.70104 -2.467839,0.3314 -4.040152,2.64155 -6.001643,4.02977 -0.943262,0.3379 -2.049049,0.58978 -3.019511,-0.10396 -1.626244,-1.09202 -3.399621,-1.96414 -5.214281,-2.0706 -1.779232,-0.0868 -3.590863,-0.48744 -5.32649,-0.15476 -1.378924,0.24173 -2.949363,-0.25047 -4.167026,0.57572 -1.334284,1.5609 -2.477756,3.37718 -4.031646,4.66562 -1.176786,0.96745 -2.757506,0.68115 -4.174855,0.72211 -4.688748,0.84854 -9.380468,1.69762 -14.067464,2.55366 -1.189793,0.12613 -1.553179,1.6414 -2.522096,2.19958 -0.872763,0.51475 -1.77239,1.56585 -2.88927,0.99862 -0.782328,-0.22638 -1.413351,-0.87782 -1.976231,-1.5453 -1.091742,0.0489 -1.789942,0.95576 -2.624042,1.56016 -0.87214,0.32138 -1.8059,0.46436 -2.73786,0.50329 -0.85426,-0.21334 -1.61044,-1.32902 -2.50901,-0.95827 -1.66601,0.9668 -3.674,0.81728 -5.39835,1.61992 -3.08709,0.83747 -9.0909,2.81195 -12.34607,2.69858 -1.00249,-0.2497 -2.36291,-0.14846 -2.93158,-1.44302 -0.75988,-1.99958 1.87378,-5.8618 2.82776,-7.59173 0.45599,-0.42819 -0.0254,-3.5676 0.49015,-3.90993 0.21479,-1.16131 0.12768,-2.40551 0.37556,-3.55795 0.24118,-1.21068 0.81335,-2.23597 1.38585,-3.23158 2.67961,-0.90494 6.72074,3.51923 9.45211,4.32948 0.62949,0.29493 0.65469,-0.66854 0.62918,-1.1471 -0.3576,-2.33255 -0.92261,-5.10702 0.34669,-7.00181 1.03184,-1.10105 2.61387,-1.35391 4.04919,-1.23089 1.54554,0.1849 2.49342,1.79736 3.71527,2.78045 0.35765,-1.07938 -0.13617,-2.276 -0.33139,-3.40399 -1.20652,-4.84379 -1.4884,-9.95528 -0.41369,-14.58379 0.99391,-3.36881 0.64309,-7.151 3.45168,-8.70739 z"
           inkscape:connector-curvature="0"
           style="opacity:1;fill:#ffffff;stroke:#ffffff;stroke-width:0.0312738"
           sodipodi:nodetypes="ccccccccccccccccccccccccccccccccccccccccc" />
      </g>
    </g>
  </g>
  <metadata
     id="metadata4242">
    <rdf:RDF>
      <cc:Work>
        <dc:format>image/svg+xml</dc:format>
        <dc:type
           rdf:resource="http://purl.org/dc/dcmitype/StillImage" />
        <cc:license
           rdf:resource="http://creativecommons.org/publicdomain/zero/1.0/" />
        <dc:publisher>
          <cc:Agent
             rdf:about="http://openclipart.org/">
            <dc:title>Openclipart</dc:title>
          </cc:Agent>
        </dc:publisher>
        <dc:title>entertainment-photos-line drawing</dc:title>
        <dc:date>2010-08-06T23:20:30</dc:date>
        <dc:description />
        <dc:source>https://openclipart.org/detail/78133/entertainment-photos-line-drawing-by-sheikh_tuhin</dc:source>
        <dc:creator>
          <cc:Agent>
            <dc:title>sheikh_tuhin</dc:title>
          </cc:Agent>
        </dc:creator>
        <dc:subject>
          <rdf:Bag>
            <rdf:li>album</rdf:li>
            <rdf:li>black and white</rdf:li>
            <rdf:li>gallery</rdf:li>
            <rdf:li>images</rdf:li>
            <rdf:li>photos</rdf:li>
            <rdf:li>polaroid</rdf:li>
          </rdf:Bag>
        </dc:subject>
      </cc:Work>
      <cc:License
         rdf:about="http://creativecommons.org/publicdomain/zero/1.0/">
        <cc:permits
           rdf:resource="http://creativecommons.org/ns#Reproduction" />
        <cc:permits
           rdf:resource="http://creativecommons.org/ns#Distribution" />
        <cc:permits
           rdf:resource="http://creativecommons.org/ns#DerivativeWorks" />
      </cc:License>
    </rdf:RDF>
  </metadata>
</svg>
